<?xml version="1.0" standalone="no"?><!DOCTYPE svg PUBLIC "-//W3C//DTD SVG 1.1//EN" "http://www.w3.org/Graphics/SVG/1.1/DTD/svg11.dtd"><svg t="1705649644280" class="icon" viewBox="0 0 1024 1024" version="1.1" xmlns="http://www.w3.org/2000/svg" p-id="2556" width="240" height="240" xmlns:xlink="http://www.w3.org/1999/xlink"><path d="M672.324267 663.893333l1.314133-3.072c1.143467-2.679467 2.218667-5.358933 3.310933-8.106666l1.262934-3.293867 0.750933-1.928533c0.392533-1.0752 0.733867-2.2528 1.109333-3.328a261.649067 261.649067 0 0 0 4.932267-15.1552c1.006933-3.310933 1.928533-6.690133 2.833067-10.103467a268.868267 268.868267 0 0 0 4.2496-17.834667c0.238933-1.160533 0.512-2.269867 0.750933-3.464533 1.109333-5.410133 2.082133-10.9568 2.986667-16.622933 0.256-1.501867 0.426667-3.037867 0.648533-4.5568 0.631467-4.2496 1.2288-8.533333 1.757867-12.919467l0.682666-6.314667c0.4096-3.9936 0.785067-8.021333 1.1264-12.0832 0.170667-2.2528 0.375467-4.5056 0.512-6.775466 0.3072-4.3008 0.512-8.669867 0.7168-13.1072l0.290134-6.109867c0.221867-6.485333 0.341333-13.090133 0.3584-19.848533 0.221867-118.9888-31.914667-187.733333-88.4736-218.504534l-116.957867-63.6416c56.593067 30.788267 88.7296 99.5328 88.490667 218.538667 0 6.741333-0.170667 13.329067-0.375467 19.8144-0.068267 2.082133-0.170667 4.096-0.273067 6.144a404.992 404.992 0 0 1-1.245866 19.882667c-0.341333 4.061867-0.699733 8.072533-1.1264 12.049066-0.221867 2.133333-0.426667 4.266667-0.682667 6.3488-0.512 4.369067-1.109333 8.6528-1.7408 12.9024-0.221867 1.501867-0.4096 3.072-0.682667 4.5568-0.8704 5.666133-1.877333 11.2128-2.952533 16.64-0.238933 1.194667-0.529067 2.286933-0.768 3.464534a363.52 363.52 0 0 1-2.833067 12.4928l-1.399466 5.358933c-0.904533 3.413333-1.8432 6.7584-2.816 10.0864l-1.672534 5.410133c-1.058133 3.2768-2.1504 6.519467-3.259733 9.728-0.648533 1.757867-1.245867 3.5328-1.8944 5.290667a322.1504 322.1504 0 0 1-4.5568 11.383467l-1.3312 3.072a231.936 231.936 0 0 1-14.267733 27.716266c-0.699733 1.194667-1.3824 2.389333-2.0992 3.549867-2.286933 3.703467-4.642133 7.304533-7.099734 10.8032-0.4608 0.682667-0.9728 1.297067-1.450666 1.979733-1.877333 2.6112-3.754667 5.205333-5.717334 7.714134-0.904533 1.143467-1.877333 2.2528-2.798933 3.362133-1.5872 1.9456-3.1744 3.925333-4.829867 5.802667-1.041067 1.194667-2.167467 2.321067-3.242666 3.515733-1.5872 1.723733-3.157333 3.464533-4.795734 5.137067-1.194667 1.211733-2.4064 2.338133-3.618133 3.5328-1.604267 1.536-3.191467 3.106133-4.846933 4.608-1.041067 0.955733-2.133333 1.877333-3.191467 2.798933a201.608533 201.608533 0 0 1-16.930133 13.329067c-1.416533 1.024-2.833067 2.048-4.283734 3.003733l-3.157333 2.065067a156.091733 156.091733 0 0 1-5.9392 3.720533c-1.041067 0.631467-2.065067 1.262933-3.1232 1.877333-2.3552 1.365333-4.744533 2.696533-7.168 3.976534-0.699733 0.3584-1.3824 0.768-2.082133 1.1264-3.1232 1.6384-6.280533 3.191467-9.506134 4.693333-1.058133 0.512-2.167467 0.938667-3.242666 1.4336-2.286933 1.024-4.573867 2.048-6.894934 2.986667-1.3312 0.5632-2.696533 1.058133-4.0448 1.5872-2.133333 0.853333-4.283733 1.672533-6.4512 2.4576l-4.352 1.536c-2.133333 0.7168-4.283733 1.416533-6.434133 2.0992l-4.573867 1.3824a268.117333 268.117333 0 0 1-11.2128 3.072c-2.304 0.6144-4.6592 1.143467-6.997333 1.706666-1.4848 0.341333-2.952533 0.682667-4.4544 0.989867-2.6112 0.546133-5.256533 1.058133-7.901867 1.553067-1.262933 0.238933-2.525867 0.512-3.84 0.733866-3.9424 0.682667-7.918933 1.365333-11.9808 1.911467l-45.5168 6.4 116.957867 63.607467 45.5168-6.4c4.0448-0.5632 8.021333-1.194667 11.9808-1.877334l3.84-0.750933c2.645333-0.494933 5.2736-1.006933 7.8848-1.570133 1.4848-0.3072 2.9696-0.6656 4.437333-0.989867a280.9344 280.9344 0 0 0 18.244267-4.7616c1.518933-0.4608 3.037867-0.904533 4.5568-1.399467 2.167467-0.682667 4.3008-1.365333 6.417067-2.116266a189.7984 189.7984 0 0 0 10.8544-3.959467c1.3312-0.512 2.679467-1.024 3.9936-1.5872 2.3552-0.9728 4.6592-1.979733 6.946133-3.0208 1.0752-0.4608 2.1504-0.904533 3.208533-1.416533l0.597334-0.238934c3.0208-1.416533 5.973333-2.901333 8.925866-4.420266l2.082134-1.160534c2.389333-1.28 4.8128-2.594133 7.168-3.976533l3.106133-1.8432c1.9968-1.2288 3.9936-2.4576 5.956267-3.720533 1.024-0.682667 2.116267-1.365333 3.140266-2.082134l2.030934-1.348266c0.768-0.512 1.501867-1.1264 2.2528-1.655467 2.2528-1.604267 4.488533-3.2256 6.656-4.9152 1.245867-0.955733 2.474667-1.877333 3.6864-2.8672 2.2528-1.809067 4.437333-3.669333 6.6048-5.563733 0.750933-0.6656 1.536-1.262933 2.304-1.9456 0.3072-0.273067 0.580267-0.580267 0.887466-0.836267 1.655467-1.501867 3.2256-3.072 4.846934-4.642133 1.194667-1.160533 2.423467-2.304 3.584-3.515734 1.672533-1.672533 3.242667-3.396267 4.829866-5.12 0.938667-1.024 1.911467-1.9968 2.816-3.0208a230.877867 230.877867 0 0 0 5.290667-6.331733c0.9216-1.1264 1.8432-2.184533 2.730667-3.345067 1.979733-2.491733 3.8912-5.12 5.768533-7.7312 0.443733-0.631467 0.938667-1.2288 1.365333-1.877333 0.034133 0 0.0512-0.0512 0.068267-0.068267 2.4576-3.498667 4.778667-7.099733 7.099733-10.8032 0.7168-1.143467 1.365333-2.372267 2.082134-3.549866 1.536-2.56 3.072-5.188267 4.539733-7.8848 0.238933-0.443733 0.512-0.853333 0.768-1.314134 1.314133-2.4576 2.594133-4.949333 3.84-7.492266l0.341333-0.6656c1.655467-3.3792 3.242667-6.826667 4.778667-10.376534" fill="#35eb9a" p-id="2557"></path><path d="M479.7952 801.672533l-45.5168 6.4 1.006933-537.173333 45.5168-6.4c136.516267-19.182933 221.4912 41.472 221.1328 234.786133-0.3584 192.238933-85.623467 283.204267-222.139733 302.3872m10.1376-664.405333L289.092267 165.495467 287.624533 955.733333l208.759467-29.320533c215.688533-30.327467 354.4576-182.203733 354.952533-448.1024 0.494933-266.990933-137.796267-372.462933-361.403733-341.0432" fill="#a7f3d0" p-id="2558"></path><path d="M172.1344 101.870933L170.666667 892.125867 287.624533 955.733333l1.467734-790.237866z" fill="#35eb9a" p-id="2559"></path><path d="M594.602667 101.922133C536.183467 70.178133 461.226667 61.2352 372.957867 73.642667L172.1344 101.870933 289.109333 165.495467l200.823467-28.228267c88.2688-12.407467 163.2256-3.4816 221.627733 28.279467L594.602667 101.922133z" fill="#6ee7b7" p-id="2560"></path></svg>